<svg width="1440" height="1024" viewBox="0 0 1440 1024" fill="none" xmlns="http://www.w3.org/2000/svg">
<g clip-path="url(#clip0_12_98)">
<rect width="1440" height="1024" fill="#001220"/>
<g clip-path="url(#clip1_12_98)">
<path d="M300 0H0V1024H300V0Z" fill="#001220"/>
<path d="M120 0L126.8 8.87467C133.7 17.8631 147.3 35.6124 151.7 53.7031C156 71.68 151 89.8844 153 107.861C155 125.952 164 143.701 160.2 161.564C156.3 179.428 139.7 197.177 136.5 215.268C133.3 233.244 143.7 251.449 142 269.426C140.3 287.516 126.7 305.266 122.3 323.356C118 341.333 123 359.538 131.2 377.515C139.3 395.605 150.7 413.355 149.7 431.218C148.7 449.081 135.3 466.83 135.7 484.921C136 502.898 150 521.102 151.3 539.079C152.7 557.17 141.3 574.919 136 592.782C130.7 610.645 131.3 628.395 137.2 646.485C143 664.462 154 682.667 157.3 700.644C160.7 718.734 156.3 736.484 149 754.574C141.7 772.551 131.3 790.756 125.3 808.732C119.3 826.823 117.7 844.572 118.8 862.436C120 880.299 124 898.048 124.5 916.139C125 934.116 122 952.32 122.7 970.297C123.3 988.388 127.7 1006.14 129.8 1015.13L132 1024H0V1015.13C0 1006.14 0 988.388 0 970.297C0 952.32 0 934.116 0 916.139C0 898.048 0 880.299 0 862.436C0 844.572 0 826.823 0 808.732C0 790.756 0 772.551 0 754.574C0 736.484 0 718.734 0 700.644C0 682.667 0 664.462 0 646.485C0 628.395 0 610.645 0 592.782C0 574.919 0 557.17 0 539.079C0 521.102 0 502.898 0 484.921C0 466.83 0 449.081 0 431.218C0 413.355 0 395.605 0 377.515C0 359.538 0 341.333 0 323.356C0 305.266 0 287.516 0 269.426C0 251.449 0 233.244 0 215.268C0 197.177 0 179.428 0 161.564C0 143.701 0 125.952 0 107.861C0 89.8844 0 71.68 0 53.7031C0 35.6124 0 17.8631 0 8.87467V0H120Z" fill="#001122"/>
<path d="M136.812 0L132.179 8.87467C127.655 17.8631 118.387 35.6124 116.401 53.7031C114.415 71.68 119.49 89.8844 128.317 107.861C137.143 125.952 149.721 143.701 146.742 161.564C143.763 179.428 125.448 197.177 117.725 215.268C110.002 233.244 112.87 251.449 123.352 269.426C133.834 287.516 151.928 305.266 158.107 323.356C164.396 341.333 158.879 359.538 156.121 377.515C153.362 395.605 153.362 413.355 152.259 431.218C151.156 449.081 148.949 466.83 142.881 484.921C136.812 502.898 126.883 521.102 122.8 539.079C118.828 557.17 120.594 574.919 121.366 592.782C122.138 610.645 121.697 628.395 129.641 646.485C137.585 664.462 153.693 682.667 153.693 700.644C153.693 718.734 137.585 736.484 129.089 754.574C120.594 772.551 119.932 790.756 118.608 808.732C117.284 826.823 115.518 844.572 123.242 862.436C130.965 880.299 148.177 898.048 152.48 916.139C156.672 934.116 147.846 952.32 142.329 970.297C136.812 988.388 134.606 1006.14 133.502 1015.13L132.399 1024H0V1015.13C0 1006.14 0 988.388 0 970.297C0 952.32 0 934.116 0 916.139C0 898.048 0 880.299 0 862.436C0 844.572 0 826.823 0 808.732C0 790.756 0 772.551 0 754.574C0 736.484 0 718.734 0 700.644C0 682.667 0 664.462 0 646.485C0 628.395 0 610.645 0 592.782C0 574.919 0 557.17 0 539.079C0 521.102 0 502.898 0 484.921C0 466.83 0 449.081 0 431.218C0 413.355 0 395.605 0 377.515C0 359.538 0 341.333 0 323.356C0 305.266 0 287.516 0 269.426C0 251.449 0 233.244 0 215.268C0 197.177 0 179.428 0 161.564C0 143.701 0 125.952 0 107.861C0 89.8844 0 71.68 0 53.7031C0 35.6124 0 17.8631 0 8.87467V0H136.812Z" fill="#002144"/>
<path d="M97 0L97.7 8.87467C98.3 17.8631 99.7 35.6124 101.5 53.7031C103.3 71.68 105.7 89.8844 109.5 107.861C113.3 125.952 118.7 143.701 121 161.564C123.3 179.428 122.7 197.177 122.5 215.268C122.3 233.244 122.7 251.449 120 269.426C117.3 287.516 111.7 305.266 106.3 323.356C101 341.333 96 359.538 96.7 377.515C97.3 395.605 103.7 413.355 108.3 431.218C113 449.081 116 466.83 117.5 484.921C119 502.898 119 521.102 119.7 539.079C120.3 557.17 121.7 574.919 121.2 592.782C120.7 610.645 118.3 628.395 115.7 646.485C113 664.462 110 682.667 107.5 700.644C105 718.734 103 736.484 104.2 754.574C105.3 772.551 109.7 790.756 110.8 808.732C112 826.823 110 844.572 111.5 862.436C113 880.299 118 898.048 119 916.139C120 934.116 117 952.32 113.7 970.297C110.3 988.388 106.7 1006.14 104.8 1015.13L103 1024H0V1015.13C0 1006.14 0 988.388 0 970.297C0 952.32 0 934.116 0 916.139C0 898.048 0 880.299 0 862.436C0 844.572 0 826.823 0 808.732C0 790.756 0 772.551 0 754.574C0 736.484 0 718.734 0 700.644C0 682.667 0 664.462 0 646.485C0 628.395 0 610.645 0 592.782C0 574.919 0 557.17 0 539.079C0 521.102 0 502.898 0 484.921C0 466.83 0 449.081 0 431.218C0 413.355 0 395.605 0 377.515C0 359.538 0 341.333 0 323.356C0 305.266 0 287.516 0 269.426C0 251.449 0 233.244 0 215.268C0 197.177 0 179.428 0 161.564C0 143.701 0 125.952 0 107.861C0 89.8844 0 71.68 0 53.7031C0 35.6124 0 17.8631 0 8.87467V0H97Z" fill="#003067"/>
<path d="M106 0L104.5 8.87467C103 17.8631 100 35.6124 99.8 53.7031C99.7 71.68 102.3 89.8844 98.3 107.861C94.3 125.952 83.7 143.701 84.2 161.564C84.7 179.428 96.3 197.177 96 215.268C95.7 233.244 83.3 251.449 77.2 269.426C71 287.516 71 305.266 76.5 323.356C82 341.333 93 359.538 95 377.515C97 395.605 90 413.355 90.8 431.218C91.7 449.081 100.3 466.83 101.5 484.921C102.7 502.898 96.3 521.102 90.2 539.079C84 557.17 78 574.919 78.8 592.782C79.7 610.645 87.3 628.395 86 646.485C84.7 664.462 74.3 682.667 73.8 700.644C73.3 718.734 82.7 736.484 89.3 754.574C96 772.551 100 790.756 101.7 808.732C103.3 826.823 102.7 844.572 103.5 862.436C104.3 880.299 106.7 898.048 103.5 916.139C100.3 934.116 91.7 952.32 86.7 970.297C81.7 988.388 80.3 1006.14 79.7 1015.13L79 1024H0V1015.13C0 1006.14 0 988.388 0 970.297C0 952.32 0 934.116 0 916.139C0 898.048 0 880.299 0 862.436C0 844.572 0 826.823 0 808.732C0 790.756 0 772.551 0 754.574C0 736.484 0 718.734 0 700.644C0 682.667 0 664.462 0 646.485C0 628.395 0 610.645 0 592.782C0 574.919 0 557.17 0 539.079C0 521.102 0 502.898 0 484.921C0 466.83 0 449.081 0 431.218C0 413.355 0 395.605 0 377.515C0 359.538 0 341.333 0 323.356C0 305.266 0 287.516 0 269.426C0 251.449 0 233.244 0 215.268C0 197.177 0 179.428 0 161.564C0 143.701 0 125.952 0 107.861C0 89.8844 0 71.68 0 53.7031C0 35.6124 0 17.8631 0 8.87467V0H106Z" fill="#003E8C"/>
<path d="M61 0L58.8 8.87467C56.7 17.8631 52.3 35.6124 53.5 53.7031C54.7 71.68 61.3 89.8844 62.5 107.861C63.7 125.952 59.3 143.701 61 161.564C62.7 179.428 70.3 197.177 72.5 215.268C74.7 233.244 71.3 251.449 66.8 269.426C62.3 287.516 56.7 305.266 58.3 323.356C60 341.333 69 359.538 73.2 377.515C77.3 395.605 76.7 413.355 75.3 431.218C74 449.081 72 466.83 69.5 484.921C67 502.898 64 521.102 65.8 539.079C67.7 557.17 74.3 574.919 78.3 592.782C82.3 610.645 83.7 628.395 81 646.485C78.3 664.462 71.7 682.667 67 700.644C62.3 718.734 59.7 736.484 62.3 754.574C65 772.551 73 790.756 76.3 808.732C79.7 826.823 78.3 844.572 77.2 862.436C76 880.299 75 898.048 72.2 916.139C69.3 934.116 64.7 952.32 61.3 970.297C58 988.388 56 1006.14 55 1015.13L54 1024H0V1015.13C0 1006.14 0 988.388 0 970.297C0 952.32 0 934.116 0 916.139C0 898.048 0 880.299 0 862.436C0 844.572 0 826.823 0 808.732C0 790.756 0 772.551 0 754.574C0 736.484 0 718.734 0 700.644C0 682.667 0 664.462 0 646.485C0 628.395 0 610.645 0 592.782C0 574.919 0 557.17 0 539.079C0 521.102 0 502.898 0 484.921C0 466.83 0 449.081 0 431.218C0 413.355 0 395.605 0 377.515C0 359.538 0 341.333 0 323.356C0 305.266 0 287.516 0 269.426C0 251.449 0 233.244 0 215.268C0 197.177 0 179.428 0 161.564C0 143.701 0 125.952 0 107.861C0 89.8844 0 71.68 0 53.7031C0 35.6124 0 17.8631 0 8.87467V0H61Z" fill="#004CB1"/>
<path d="M48 0L49.5 8.87467C51 17.8631 54 35.6124 54.3 53.7031C54.7 71.68 52.3 89.8844 52.7 107.861C53 125.952 56 143.701 58 161.564C60 179.428 61 197.177 58.2 215.268C55.3 233.244 48.7 251.449 48.5 269.426C48.3 287.516 54.7 305.266 55.2 323.356C55.7 341.333 50.3 359.538 50.5 377.515C50.7 395.605 56.3 413.355 57 431.218C57.7 449.081 53.3 466.83 48.2 484.921C43 502.898 37 521.102 38.2 539.079C39.3 557.17 47.7 574.919 51.5 592.782C55.3 610.645 54.7 628.395 51.3 646.485C48 664.462 42 682.667 38.5 700.644C35 718.734 34 736.484 33.7 754.574C33.3 772.551 33.7 790.756 35.2 808.732C36.7 826.823 39.3 844.572 42.3 862.436C45.3 880.299 48.7 898.048 51 916.139C53.3 934.116 54.7 952.32 52.7 970.297C50.7 988.388 45.3 1006.14 42.7 1015.13L40 1024H0V1015.13C0 1006.14 0 988.388 0 970.297C0 952.32 0 934.116 0 916.139C0 898.048 0 880.299 0 862.436C0 844.572 0 826.823 0 808.732C0 790.756 0 772.551 0 754.574C0 736.484 0 718.734 0 700.644C0 682.667 0 664.462 0 646.485C0 628.395 0 610.645 0 592.782C0 574.919 0 557.17 0 539.079C0 521.102 0 502.898 0 484.921C0 466.83 0 449.081 0 431.218C0 413.355 0 395.605 0 377.515C0 359.538 0 341.333 0 323.356C0 305.266 0 287.516 0 269.426C0 251.449 0 233.244 0 215.268C0 197.177 0 179.428 0 161.564C0 143.701 0 125.952 0 107.861C0 89.8844 0 71.68 0 53.7031C0 35.6124 0 17.8631 0 8.87467V0H48Z" fill="#0059D8"/>
<path d="M33 0L34.2 8.87467C35.3 17.8631 37.7 35.6124 37.5 53.7031C37.3 71.68 34.7 89.8844 31.7 107.861C28.7 125.952 25.3 143.701 23.8 161.564C22.3 179.428 22.7 197.177 25.3 215.268C28 233.244 33 251.449 34.5 269.426C36 287.516 34 305.266 30.5 323.356C27 341.333 22 359.538 19.8 377.515C17.7 395.605 18.3 413.355 18.2 431.218C18 449.081 17 466.83 19 484.921C21 502.898 26 521.102 28.3 539.079C30.7 557.17 30.3 574.919 28 592.782C25.7 610.645 21.3 628.395 22.2 646.485C23 664.462 29 682.667 30.2 700.644C31.3 718.734 27.7 736.484 28 754.574C28.3 772.551 32.7 790.756 35 808.732C37.3 826.823 37.7 844.572 35.8 862.436C34 880.299 30 898.048 29 916.139C28 934.116 30 952.32 30 970.297C30 988.388 28 1006.14 27 1015.13L26 1024H0V1015.13C0 1006.14 0 988.388 0 970.297C0 952.32 0 934.116 0 916.139C0 898.048 0 880.299 0 862.436C0 844.572 0 826.823 0 808.732C0 790.756 0 772.551 0 754.574C0 736.484 0 718.734 0 700.644C0 682.667 0 664.462 0 646.485C0 628.395 0 610.645 0 592.782C0 574.919 0 557.17 0 539.079C0 521.102 0 502.898 0 484.921C0 466.83 0 449.081 0 431.218C0 413.355 0 395.605 0 377.515C0 359.538 0 341.333 0 323.356C0 305.266 0 287.516 0 269.426C0 251.449 0 233.244 0 215.268C0 197.177 0 179.428 0 161.564C0 143.701 0 125.952 0 107.861C0 89.8844 0 71.68 0 53.7031C0 35.6124 0 17.8631 0 8.87467V0H33Z" fill="#0066FF"/>
</g>
<g clip-path="url(#clip2_12_98)">
<path d="M1140 1024H1440L1440 0H1140V1024Z" fill="#001220"/>
<path d="M1320 1024L1313.2 1015.13C1306.3 1006.14 1292.7 988.388 1288.3 970.297C1284 952.32 1289 934.116 1287 916.139C1285 898.048 1276 880.299 1279.8 862.436C1283.7 844.572 1300.3 826.823 1303.5 808.732C1306.7 790.756 1296.3 772.551 1298 754.574C1299.7 736.484 1313.3 718.734 1317.7 700.644C1322 682.667 1317 664.462 1308.8 646.485C1300.7 628.395 1289.3 610.645 1290.3 592.782C1291.3 574.919 1304.7 557.17 1304.3 539.079C1304 521.102 1290 502.898 1288.7 484.921C1287.3 466.83 1298.7 449.081 1304 431.218C1309.3 413.355 1308.7 395.605 1302.8 377.515C1297 359.538 1286 341.333 1282.7 323.356C1279.3 305.266 1283.7 287.516 1291 269.426C1298.3 251.449 1308.7 233.244 1314.7 215.268C1320.7 197.177 1322.3 179.428 1321.2 161.564C1320 143.701 1316 125.952 1315.5 107.861C1315 89.8844 1318 71.68 1317.3 53.7031C1316.7 35.6124 1312.3 17.8631 1310.2 8.87463L1308 -2.47955e-05H1440V8.87463C1440 17.8631 1440 35.6124 1440 53.7031C1440 71.68 1440 89.8844 1440 107.861C1440 125.952 1440 143.701 1440 161.564C1440 179.428 1440 197.177 1440 215.268C1440 233.244 1440 251.449 1440 269.426C1440 287.516 1440 305.266 1440 323.356C1440 341.333 1440 359.538 1440 377.515C1440 395.605 1440 413.355 1440 431.218C1440 449.081 1440 466.83 1440 484.921C1440 502.898 1440 521.102 1440 539.079C1440 557.17 1440 574.919 1440 592.782C1440 610.645 1440 628.395 1440 646.485C1440 664.462 1440 682.667 1440 700.644C1440 718.734 1440 736.484 1440 754.574C1440 772.551 1440 790.756 1440 808.732C1440 826.823 1440 844.572 1440 862.436C1440 880.299 1440 898.048 1440 916.139C1440 934.116 1440 952.32 1440 970.297C1440 988.388 1440 1006.14 1440 1015.13V1024H1320Z" fill="#001122"/>
<path d="M1303.19 1024L1307.82 1015.13C1312.35 1006.14 1321.61 988.388 1323.6 970.297C1325.59 952.32 1320.51 934.116 1311.68 916.139C1302.86 898.048 1290.28 880.299 1293.26 862.436C1296.24 844.572 1314.55 826.823 1322.28 808.732C1330 790.756 1327.13 772.551 1316.65 754.574C1306.17 736.484 1288.07 718.734 1281.89 700.644C1275.6 682.667 1281.12 664.462 1283.88 646.485C1286.64 628.395 1286.64 610.645 1287.74 592.782C1288.84 574.919 1291.05 557.17 1297.12 539.079C1303.19 521.102 1313.12 502.898 1317.2 484.921C1321.17 466.83 1319.41 449.081 1318.63 431.218C1317.86 413.355 1318.3 395.605 1310.36 377.515C1302.42 359.538 1286.31 341.333 1286.31 323.356C1286.31 305.266 1302.42 287.516 1310.91 269.426C1319.41 251.449 1320.07 233.244 1321.39 215.268C1322.72 197.177 1324.48 179.428 1316.76 161.564C1309.04 143.701 1291.82 125.952 1287.52 107.861C1283.33 89.8844 1292.15 71.68 1297.67 53.7031C1303.19 35.6124 1305.39 17.8631 1306.5 8.87463L1307.6 -2.47955e-05H1440V8.87463C1440 17.8631 1440 35.6124 1440 53.7031C1440 71.68 1440 89.8844 1440 107.861C1440 125.952 1440 143.701 1440 161.564C1440 179.428 1440 197.177 1440 215.268C1440 233.244 1440 251.449 1440 269.426C1440 287.516 1440 305.266 1440 323.356C1440 341.333 1440 359.538 1440 377.515C1440 395.605 1440 413.355 1440 431.218C1440 449.081 1440 466.83 1440 484.921C1440 502.898 1440 521.102 1440 539.079C1440 557.17 1440 574.919 1440 592.782C1440 610.645 1440 628.395 1440 646.485C1440 664.462 1440 682.667 1440 700.644C1440 718.734 1440 736.484 1440 754.574C1440 772.551 1440 790.756 1440 808.732C1440 826.823 1440 844.572 1440 862.436C1440 880.299 1440 898.048 1440 916.139C1440 934.116 1440 952.32 1440 970.297C1440 988.388 1440 1006.14 1440 1015.13V1024H1303.19Z" fill="#002144"/>
<path d="M1343 1024L1342.3 1015.13C1341.7 1006.14 1340.3 988.388 1338.5 970.297C1336.7 952.32 1334.3 934.116 1330.5 916.139C1326.7 898.048 1321.3 880.299 1319 862.436C1316.7 844.572 1317.3 826.823 1317.5 808.732C1317.7 790.756 1317.3 772.551 1320 754.574C1322.7 736.484 1328.3 718.734 1333.7 700.644C1339 682.667 1344 664.462 1343.3 646.485C1342.7 628.395 1336.3 610.645 1331.7 592.782C1327 574.919 1324 557.17 1322.5 539.079C1321 521.102 1321 502.898 1320.3 484.921C1319.7 466.83 1318.3 449.081 1318.8 431.218C1319.3 413.355 1321.7 395.605 1324.3 377.515C1327 359.538 1330 341.333 1332.5 323.356C1335 305.266 1337 287.516 1335.8 269.426C1334.7 251.449 1330.3 233.244 1329.2 215.268C1328 197.177 1330 179.428 1328.5 161.564C1327 143.701 1322 125.952 1321 107.861C1320 89.8844 1323 71.68 1326.3 53.7031C1329.7 35.6124 1333.3 17.8631 1335.2 8.87463L1337 -2.47955e-05H1440V8.87463C1440 17.8631 1440 35.6124 1440 53.7031C1440 71.68 1440 89.8844 1440 107.861C1440 125.952 1440 143.701 1440 161.564C1440 179.428 1440 197.177 1440 215.268C1440 233.244 1440 251.449 1440 269.426C1440 287.516 1440 305.266 1440 323.356C1440 341.333 1440 359.538 1440 377.515C1440 395.605 1440 413.355 1440 431.218C1440 449.081 1440 466.83 1440 484.921C1440 502.898 1440 521.102 1440 539.079C1440 557.17 1440 574.919 1440 592.782C1440 610.645 1440 628.395 1440 646.485C1440 664.462 1440 682.667 1440 700.644C1440 718.734 1440 736.484 1440 754.574C1440 772.551 1440 790.756 1440 808.732C1440 826.823 1440 844.572 1440 862.436C1440 880.299 1440 898.048 1440 916.139C1440 934.116 1440 952.32 1440 970.297C1440 988.388 1440 1006.14 1440 1015.13V1024H1343Z" fill="#003067"/>
<path d="M1334 1024L1335.5 1015.13C1337 1006.14 1340 988.388 1340.2 970.297C1340.3 952.32 1337.7 934.116 1341.7 916.139C1345.7 898.048 1356.3 880.299 1355.8 862.436C1355.3 844.572 1343.7 826.823 1344 808.732C1344.3 790.756 1356.7 772.551 1362.8 754.574C1369 736.484 1369 718.734 1363.5 700.644C1358 682.667 1347 664.462 1345 646.485C1343 628.395 1350 610.645 1349.2 592.782C1348.3 574.919 1339.7 557.17 1338.5 539.079C1337.3 521.102 1343.7 502.898 1349.8 484.921C1356 466.83 1362 449.081 1361.2 431.218C1360.3 413.355 1352.7 395.605 1354 377.515C1355.3 359.538 1365.7 341.333 1366.2 323.356C1366.7 305.266 1357.3 287.516 1350.7 269.426C1344 251.449 1340 233.244 1338.3 215.268C1336.7 197.177 1337.3 179.428 1336.5 161.564C1335.7 143.701 1333.3 125.952 1336.5 107.861C1339.7 89.8844 1348.3 71.68 1353.3 53.7031C1358.3 35.6124 1359.7 17.8631 1360.3 8.87463L1361 -2.47955e-05H1440V8.87463C1440 17.8631 1440 35.6124 1440 53.7031C1440 71.68 1440 89.8844 1440 107.861C1440 125.952 1440 143.701 1440 161.564C1440 179.428 1440 197.177 1440 215.268C1440 233.244 1440 251.449 1440 269.426C1440 287.516 1440 305.266 1440 323.356C1440 341.333 1440 359.538 1440 377.515C1440 395.605 1440 413.355 1440 431.218C1440 449.081 1440 466.83 1440 484.921C1440 502.898 1440 521.102 1440 539.079C1440 557.17 1440 574.919 1440 592.782C1440 610.645 1440 628.395 1440 646.485C1440 664.462 1440 682.667 1440 700.644C1440 718.734 1440 736.484 1440 754.574C1440 772.551 1440 790.756 1440 808.732C1440 826.823 1440 844.572 1440 862.436C1440 880.299 1440 898.048 1440 916.139C1440 934.116 1440 952.32 1440 970.297C1440 988.388 1440 1006.14 1440 1015.13V1024H1334Z" fill="#003E8C"/>
<path d="M1379 1024L1381.2 1015.13C1383.3 1006.14 1387.7 988.388 1386.5 970.297C1385.3 952.32 1378.7 934.116 1377.5 916.139C1376.3 898.048 1380.7 880.299 1379 862.436C1377.3 844.572 1369.7 826.823 1367.5 808.732C1365.3 790.756 1368.7 772.551 1373.2 754.574C1377.7 736.484 1383.3 718.734 1381.7 700.644C1380 682.667 1371 664.462 1366.8 646.485C1362.7 628.395 1363.3 610.645 1364.7 592.782C1366 574.919 1368 557.17 1370.5 539.079C1373 521.102 1376 502.898 1374.2 484.921C1372.3 466.83 1365.7 449.081 1361.7 431.218C1357.7 413.355 1356.3 395.605 1359 377.515C1361.7 359.538 1368.3 341.333 1373 323.356C1377.7 305.266 1380.3 287.516 1377.7 269.426C1375 251.449 1367 233.244 1363.7 215.268C1360.3 197.177 1361.7 179.428 1362.8 161.564C1364 143.701 1365 125.952 1367.8 107.861C1370.7 89.8844 1375.3 71.68 1378.7 53.7031C1382 35.6124 1384 17.8631 1385 8.87463L1386 -2.47955e-05H1440V8.87463C1440 17.8631 1440 35.6124 1440 53.7031C1440 71.68 1440 89.8844 1440 107.861C1440 125.952 1440 143.701 1440 161.564C1440 179.428 1440 197.177 1440 215.268C1440 233.244 1440 251.449 1440 269.426C1440 287.516 1440 305.266 1440 323.356C1440 341.333 1440 359.538 1440 377.515C1440 395.605 1440 413.355 1440 431.218C1440 449.081 1440 466.83 1440 484.921C1440 502.898 1440 521.102 1440 539.079C1440 557.17 1440 574.919 1440 592.782C1440 610.645 1440 628.395 1440 646.485C1440 664.462 1440 682.667 1440 700.644C1440 718.734 1440 736.484 1440 754.574C1440 772.551 1440 790.756 1440 808.732C1440 826.823 1440 844.572 1440 862.436C1440 880.299 1440 898.048 1440 916.139C1440 934.116 1440 952.32 1440 970.297C1440 988.388 1440 1006.14 1440 1015.13V1024H1379Z" fill="#004CB1"/>
<path d="M1392 1024L1390.5 1015.13C1389 1006.14 1386 988.388 1385.7 970.297C1385.3 952.32 1387.7 934.116 1387.3 916.139C1387 898.048 1384 880.299 1382 862.436C1380 844.572 1379 826.823 1381.8 808.732C1384.7 790.756 1391.3 772.551 1391.5 754.574C1391.7 736.484 1385.3 718.734 1384.8 700.644C1384.3 682.667 1389.7 664.462 1389.5 646.485C1389.3 628.395 1383.7 610.645 1383 592.782C1382.3 574.919 1386.7 557.17 1391.8 539.079C1397 521.102 1403 502.898 1401.8 484.921C1400.7 466.83 1392.3 449.081 1388.5 431.218C1384.7 413.355 1385.3 395.605 1388.7 377.515C1392 359.538 1398 341.333 1401.5 323.356C1405 305.266 1406 287.516 1406.3 269.426C1406.7 251.449 1406.3 233.244 1404.8 215.268C1403.3 197.177 1400.7 179.428 1397.7 161.564C1394.7 143.701 1391.3 125.952 1389 107.861C1386.7 89.8844 1385.3 71.68 1387.3 53.7031C1389.3 35.6124 1394.7 17.8631 1397.3 8.87463L1400 -2.47955e-05H1440V8.87463C1440 17.8631 1440 35.6124 1440 53.7031C1440 71.68 1440 89.8844 1440 107.861C1440 125.952 1440 143.701 1440 161.564C1440 179.428 1440 197.177 1440 215.268C1440 233.244 1440 251.449 1440 269.426C1440 287.516 1440 305.266 1440 323.356C1440 341.333 1440 359.538 1440 377.515C1440 395.605 1440 413.355 1440 431.218C1440 449.081 1440 466.83 1440 484.921C1440 502.898 1440 521.102 1440 539.079C1440 557.17 1440 574.919 1440 592.782C1440 610.645 1440 628.395 1440 646.485C1440 664.462 1440 682.667 1440 700.644C1440 718.734 1440 736.484 1440 754.574C1440 772.551 1440 790.756 1440 808.732C1440 826.823 1440 844.572 1440 862.436C1440 880.299 1440 898.048 1440 916.139C1440 934.116 1440 952.32 1440 970.297C1440 988.388 1440 1006.14 1440 1015.13V1024H1392Z" fill="#0059D8"/>
<path d="M1407 1024L1405.8 1015.13C1404.7 1006.14 1402.3 988.388 1402.5 970.297C1402.7 952.32 1405.3 934.116 1408.3 916.139C1411.3 898.048 1414.7 880.299 1416.2 862.436C1417.7 844.572 1417.3 826.823 1414.7 808.732C1412 790.756 1407 772.551 1405.5 754.574C1404 736.484 1406 718.734 1409.5 700.644C1413 682.667 1418 664.462 1420.2 646.485C1422.3 628.395 1421.7 610.645 1421.8 592.782C1422 574.919 1423 557.17 1421 539.079C1419 521.102 1414 502.898 1411.7 484.921C1409.3 466.83 1409.7 449.081 1412 431.218C1414.3 413.355 1418.7 395.605 1417.8 377.515C1417 359.538 1411 341.333 1409.8 323.356C1408.7 305.266 1412.3 287.516 1412 269.426C1411.7 251.449 1407.3 233.244 1405 215.268C1402.7 197.177 1402.3 179.428 1404.2 161.564C1406 143.701 1410 125.952 1411 107.861C1412 89.8844 1410 71.68 1410 53.7031C1410 35.6124 1412 17.8631 1413 8.87463L1414 -2.47955e-05H1440V8.87463C1440 17.8631 1440 35.6124 1440 53.7031C1440 71.68 1440 89.8844 1440 107.861C1440 125.952 1440 143.701 1440 161.564C1440 179.428 1440 197.177 1440 215.268C1440 233.244 1440 251.449 1440 269.426C1440 287.516 1440 305.266 1440 323.356C1440 341.333 1440 359.538 1440 377.515C1440 395.605 1440 413.355 1440 431.218C1440 449.081 1440 466.83 1440 484.921C1440 502.898 1440 521.102 1440 539.079C1440 557.17 1440 574.919 1440 592.782C1440 610.645 1440 628.395 1440 646.485C1440 664.462 1440 682.667 1440 700.644C1440 718.734 1440 736.484 1440 754.574C1440 772.551 1440 790.756 1440 808.732C1440 826.823 1440 844.572 1440 862.436C1440 880.299 1440 898.048 1440 916.139C1440 934.116 1440 952.32 1440 970.297C1440 988.388 1440 1006.14 1440 1015.13V1024H1407Z" fill="#0066FF"/>
</g>
</g>
<defs>
<clipPath id="clip0_12_98">
<rect width="1440" height="1024" fill="white"/>
</clipPath>
<clipPath id="clip1_12_98">
<rect width="300" height="1024" fill="white"/>
</clipPath>
<clipPath id="clip2_12_98">
<rect width="300" height="1024" fill="white" transform="translate(1440 1024) rotate(-180)"/>
</clipPath>
</defs>
</svg>
