<svg width="4092" height="1024" viewBox="0 0 4092 1024" fill="none" xmlns="http://www.w3.org/2000/svg">
<rect width="4092" height="1024" fill="#001220"/>
<g clip-path="url(#clip0_21_2)">
<path d="M300 0H0V1024H300V0Z" fill="#001220"/>
<path d="M120 0L126.8 8.87467C133.7 17.8631 147.3 35.6124 151.7 53.7031C156 71.68 151 89.8844 153 107.861C155 125.952 164 143.701 160.2 161.564C156.3 179.428 139.7 197.177 136.5 215.268C133.3 233.244 143.7 251.449 142 269.426C140.3 287.516 126.7 305.266 122.3 323.356C118 341.333 123 359.538 131.2 377.515C139.3 395.605 150.7 413.355 149.7 431.218C148.7 449.081 135.3 466.83 135.7 484.921C136 502.898 150 521.102 151.3 539.079C152.7 557.17 141.3 574.919 136 592.782C130.7 610.645 131.3 628.395 137.2 646.485C143 664.462 154 682.667 157.3 700.644C160.7 718.734 156.3 736.484 149 754.574C141.7 772.551 131.3 790.756 125.3 808.732C119.3 826.823 117.7 844.572 118.8 862.436C120 880.299 124 898.048 124.5 916.139C125 934.116 122 952.32 122.7 970.297C123.3 988.388 127.7 1006.14 129.8 1015.13L132 1024H0V1015.13C0 1006.14 0 988.388 0 970.297C0 952.32 0 934.116 0 916.139C0 898.048 0 880.299 0 862.436C0 844.572 0 826.823 0 808.732C0 790.756 0 772.551 0 754.574C0 736.484 0 718.734 0 700.644C0 682.667 0 664.462 0 646.485C0 628.395 0 610.645 0 592.782C0 574.919 0 557.17 0 539.079C0 521.102 0 502.898 0 484.921C0 466.83 0 449.081 0 431.218C0 413.355 0 395.605 0 377.515C0 359.538 0 341.333 0 323.356C0 305.266 0 287.516 0 269.426C0 251.449 0 233.244 0 215.268C0 197.177 0 179.428 0 161.564C0 143.701 0 125.952 0 107.861C0 89.8844 0 71.68 0 53.7031C0 35.6124 0 17.8631 0 8.87467V0H120Z" fill="#001122"/>
<path d="M136.812 0L132.179 8.87467C127.655 17.8631 118.387 35.6124 116.401 53.7031C114.415 71.68 119.49 89.8844 128.317 107.861C137.143 125.952 149.721 143.701 146.742 161.564C143.763 179.428 125.448 197.177 117.725 215.268C110.002 233.244 112.87 251.449 123.352 269.426C133.834 287.516 151.928 305.266 158.107 323.356C164.396 341.333 158.879 359.538 156.121 377.515C153.362 395.605 153.362 413.355 152.259 431.218C151.156 449.081 148.949 466.83 142.881 484.921C136.812 502.898 126.883 521.102 122.8 539.079C118.828 557.17 120.594 574.919 121.366 592.782C122.138 610.645 121.697 628.395 129.641 646.485C137.585 664.462 153.693 682.667 153.693 700.644C153.693 718.734 137.585 736.484 129.089 754.574C120.594 772.551 119.932 790.756 118.608 808.732C117.284 826.823 115.518 844.572 123.242 862.436C130.965 880.299 148.177 898.048 152.48 916.139C156.672 934.116 147.846 952.32 142.329 970.297C136.812 988.388 134.606 1006.14 133.502 1015.13L132.399 1024H0V1015.13C0 1006.14 0 988.388 0 970.297C0 952.32 0 934.116 0 916.139C0 898.048 0 880.299 0 862.436C0 844.572 0 826.823 0 808.732C0 790.756 0 772.551 0 754.574C0 736.484 0 718.734 0 700.644C0 682.667 0 664.462 0 646.485C0 628.395 0 610.645 0 592.782C0 574.919 0 557.17 0 539.079C0 521.102 0 502.898 0 484.921C0 466.83 0 449.081 0 431.218C0 413.355 0 395.605 0 377.515C0 359.538 0 341.333 0 323.356C0 305.266 0 287.516 0 269.426C0 251.449 0 233.244 0 215.268C0 197.177 0 179.428 0 161.564C0 143.701 0 125.952 0 107.861C0 89.8844 0 71.68 0 53.7031C0 35.6124 0 17.8631 0 8.87467V0H136.812Z" fill="#002144"/>
<path d="M97 0L97.7 8.87467C98.3 17.8631 99.7 35.6124 101.5 53.7031C103.3 71.68 105.7 89.8844 109.5 107.861C113.3 125.952 118.7 143.701 121 161.564C123.3 179.428 122.7 197.177 122.5 215.268C122.3 233.244 122.7 251.449 120 269.426C117.3 287.516 111.7 305.266 106.3 323.356C101 341.333 96 359.538 96.7 377.515C97.3 395.605 103.7 413.355 108.3 431.218C113 449.081 116 466.83 117.5 484.921C119 502.898 119 521.102 119.7 539.079C120.3 557.17 121.7 574.919 121.2 592.782C120.7 610.645 118.3 628.395 115.7 646.485C113 664.462 110 682.667 107.5 700.644C105 718.734 103 736.484 104.2 754.574C105.3 772.551 109.7 790.756 110.8 808.732C112 826.823 110 844.572 111.5 862.436C113 880.299 118 898.048 119 916.139C120 934.116 117 952.32 113.7 970.297C110.3 988.388 106.7 1006.14 104.8 1015.13L103 1024H0V1015.13C0 1006.14 0 988.388 0 970.297C0 952.32 0 934.116 0 916.139C0 898.048 0 880.299 0 862.436C0 844.572 0 826.823 0 808.732C0 790.756 0 772.551 0 754.574C0 736.484 0 718.734 0 700.644C0 682.667 0 664.462 0 646.485C0 628.395 0 610.645 0 592.782C0 574.919 0 557.17 0 539.079C0 521.102 0 502.898 0 484.921C0 466.83 0 449.081 0 431.218C0 413.355 0 395.605 0 377.515C0 359.538 0 341.333 0 323.356C0 305.266 0 287.516 0 269.426C0 251.449 0 233.244 0 215.268C0 197.177 0 179.428 0 161.564C0 143.701 0 125.952 0 107.861C0 89.8844 0 71.68 0 53.7031C0 35.6124 0 17.8631 0 8.87467V0H97Z" fill="#003067"/>
<path d="M106 0L104.5 8.87467C103 17.8631 100 35.6124 99.8 53.7031C99.7 71.68 102.3 89.8844 98.3 107.861C94.3 125.952 83.7 143.701 84.2 161.564C84.7 179.428 96.3 197.177 96 215.268C95.7 233.244 83.3 251.449 77.2 269.426C71 287.516 71 305.266 76.5 323.356C82 341.333 93 359.538 95 377.515C97 395.605 90 413.355 90.8 431.218C91.7 449.081 100.3 466.83 101.5 484.921C102.7 502.898 96.3 521.102 90.2 539.079C84 557.17 78 574.919 78.8 592.782C79.7 610.645 87.3 628.395 86 646.485C84.7 664.462 74.3 682.667 73.8 700.644C73.3 718.734 82.7 736.484 89.3 754.574C96 772.551 100 790.756 101.7 808.732C103.3 826.823 102.7 844.572 103.5 862.436C104.3 880.299 106.7 898.048 103.5 916.139C100.3 934.116 91.7 952.32 86.7 970.297C81.7 988.388 80.3 1006.14 79.7 1015.13L79 1024H0V1015.13C0 1006.14 0 988.388 0 970.297C0 952.32 0 934.116 0 916.139C0 898.048 0 880.299 0 862.436C0 844.572 0 826.823 0 808.732C0 790.756 0 772.551 0 754.574C0 736.484 0 718.734 0 700.644C0 682.667 0 664.462 0 646.485C0 628.395 0 610.645 0 592.782C0 574.919 0 557.17 0 539.079C0 521.102 0 502.898 0 484.921C0 466.83 0 449.081 0 431.218C0 413.355 0 395.605 0 377.515C0 359.538 0 341.333 0 323.356C0 305.266 0 287.516 0 269.426C0 251.449 0 233.244 0 215.268C0 197.177 0 179.428 0 161.564C0 143.701 0 125.952 0 107.861C0 89.8844 0 71.68 0 53.7031C0 35.6124 0 17.8631 0 8.87467V0H106Z" fill="#003E8C"/>
<path d="M61 0L58.8 8.87467C56.7 17.8631 52.3 35.6124 53.5 53.7031C54.7 71.68 61.3 89.8844 62.5 107.861C63.7 125.952 59.3 143.701 61 161.564C62.7 179.428 70.3 197.177 72.5 215.268C74.7 233.244 71.3 251.449 66.8 269.426C62.3 287.516 56.7 305.266 58.3 323.356C60 341.333 69 359.538 73.2 377.515C77.3 395.605 76.7 413.355 75.3 431.218C74 449.081 72 466.83 69.5 484.921C67 502.898 64 521.102 65.8 539.079C67.7 557.17 74.3 574.919 78.3 592.782C82.3 610.645 83.7 628.395 81 646.485C78.3 664.462 71.7 682.667 67 700.644C62.3 718.734 59.7 736.484 62.3 754.574C65 772.551 73 790.756 76.3 808.732C79.7 826.823 78.3 844.572 77.2 862.436C76 880.299 75 898.048 72.2 916.139C69.3 934.116 64.7 952.32 61.3 970.297C58 988.388 56 1006.14 55 1015.13L54 1024H0V1015.13C0 1006.14 0 988.388 0 970.297C0 952.32 0 934.116 0 916.139C0 898.048 0 880.299 0 862.436C0 844.572 0 826.823 0 808.732C0 790.756 0 772.551 0 754.574C0 736.484 0 718.734 0 700.644C0 682.667 0 664.462 0 646.485C0 628.395 0 610.645 0 592.782C0 574.919 0 557.17 0 539.079C0 521.102 0 502.898 0 484.921C0 466.83 0 449.081 0 431.218C0 413.355 0 395.605 0 377.515C0 359.538 0 341.333 0 323.356C0 305.266 0 287.516 0 269.426C0 251.449 0 233.244 0 215.268C0 197.177 0 179.428 0 161.564C0 143.701 0 125.952 0 107.861C0 89.8844 0 71.68 0 53.7031C0 35.6124 0 17.8631 0 8.87467V0H61Z" fill="#004CB1"/>
<path d="M48 0L49.5 8.87467C51 17.8631 54 35.6124 54.3 53.7031C54.7 71.68 52.3 89.8844 52.7 107.861C53 125.952 56 143.701 58 161.564C60 179.428 61 197.177 58.2 215.268C55.3 233.244 48.7 251.449 48.5 269.426C48.3 287.516 54.7 305.266 55.2 323.356C55.7 341.333 50.3 359.538 50.5 377.515C50.7 395.605 56.3 413.355 57 431.218C57.7 449.081 53.3 466.83 48.2 484.921C43 502.898 37 521.102 38.2 539.079C39.3 557.17 47.7 574.919 51.5 592.782C55.3 610.645 54.7 628.395 51.3 646.485C48 664.462 42 682.667 38.5 700.644C35 718.734 34 736.484 33.7 754.574C33.3 772.551 33.7 790.756 35.2 808.732C36.7 826.823 39.3 844.572 42.3 862.436C45.3 880.299 48.7 898.048 51 916.139C53.3 934.116 54.7 952.32 52.7 970.297C50.7 988.388 45.3 1006.14 42.7 1015.13L40 1024H0V1015.13C0 1006.14 0 988.388 0 970.297C0 952.32 0 934.116 0 916.139C0 898.048 0 880.299 0 862.436C0 844.572 0 826.823 0 808.732C0 790.756 0 772.551 0 754.574C0 736.484 0 718.734 0 700.644C0 682.667 0 664.462 0 646.485C0 628.395 0 610.645 0 592.782C0 574.919 0 557.17 0 539.079C0 521.102 0 502.898 0 484.921C0 466.83 0 449.081 0 431.218C0 413.355 0 395.605 0 377.515C0 359.538 0 341.333 0 323.356C0 305.266 0 287.516 0 269.426C0 251.449 0 233.244 0 215.268C0 197.177 0 179.428 0 161.564C0 143.701 0 125.952 0 107.861C0 89.8844 0 71.68 0 53.7031C0 35.6124 0 17.8631 0 8.87467V0H48Z" fill="#0059D8"/>
<path d="M33 0L34.2 8.87467C35.3 17.8631 37.7 35.6124 37.5 53.7031C37.3 71.68 34.7 89.8844 31.7 107.861C28.7 125.952 25.3 143.701 23.8 161.564C22.3 179.428 22.7 197.177 25.3 215.268C28 233.244 33 251.449 34.5 269.426C36 287.516 34 305.266 30.5 323.356C27 341.333 22 359.538 19.8 377.515C17.7 395.605 18.3 413.355 18.2 431.218C18 449.081 17 466.83 19 484.921C21 502.898 26 521.102 28.3 539.079C30.7 557.17 30.3 574.919 28 592.782C25.7 610.645 21.3 628.395 22.2 646.485C23 664.462 29 682.667 30.2 700.644C31.3 718.734 27.7 736.484 28 754.574C28.3 772.551 32.7 790.756 35 808.732C37.3 826.823 37.7 844.572 35.8 862.436C34 880.299 30 898.048 29 916.139C28 934.116 30 952.32 30 970.297C30 988.388 28 1006.14 27 1015.13L26 1024H0V1015.13C0 1006.14 0 988.388 0 970.297C0 952.32 0 934.116 0 916.139C0 898.048 0 880.299 0 862.436C0 844.572 0 826.823 0 808.732C0 790.756 0 772.551 0 754.574C0 736.484 0 718.734 0 700.644C0 682.667 0 664.462 0 646.485C0 628.395 0 610.645 0 592.782C0 574.919 0 557.17 0 539.079C0 521.102 0 502.898 0 484.921C0 466.83 0 449.081 0 431.218C0 413.355 0 395.605 0 377.515C0 359.538 0 341.333 0 323.356C0 305.266 0 287.516 0 269.426C0 251.449 0 233.244 0 215.268C0 197.177 0 179.428 0 161.564C0 143.701 0 125.952 0 107.861C0 89.8844 0 71.68 0 53.7031C0 35.6124 0 17.8631 0 8.87467V0H33Z" fill="#0066FF"/>
</g>
<defs>
<clipPath id="clip0_21_2">
<rect width="300" height="1024" fill="white"/>
</clipPath>
</defs>
</svg>
